<svg width="16" height="19" viewBox="0 0 16 19" fill="none" xmlns="http://www.w3.org/2000/svg">
<g id="Item &#226;&#143;&#181; Link" clip-path="url(#clip0_209_282)">
<path id="Vector" d="M10.1032 11.4182C10.1032 11.4182 10.2287 11.2927 10.4798 11.0416C10.731 10.7905 10.8565 10.31 10.8565 9.60017C10.8565 8.89035 10.6054 8.28432 10.1032 7.78209C9.60093 7.27985 8.99491 7.02874 8.28509 7.02874C7.57526 7.02874 6.96924 7.27985 6.46701 7.78209C5.96477 8.28432 5.71366 8.89035 5.71366 9.60017C5.71366 10.31 5.96477 10.916 6.46701 11.4182C6.96924 11.9205 7.57526 12.1716 8.28509 12.1716C8.99491 12.1716 9.60093 11.9205 10.1032 11.4182ZM11.0875 6.79771C11.0875 6.79771 11.2801 6.99023 11.6651 7.37528C12.0502 7.76032 12.2427 8.50195 12.2427 9.60017C12.2427 10.6984 11.8576 11.6325 11.0875 12.4026C10.3175 13.1727 9.3833 13.5578 8.28509 13.5578C7.18687 13.5578 6.25272 13.1727 5.48263 12.4026C4.71254 11.6325 4.3275 10.6984 4.3275 9.60017C4.3275 8.50195 4.71254 7.5678 5.48263 6.79771C6.25272 6.02762 7.18687 5.64258 8.28509 5.64258C9.3833 5.64258 10.3175 6.02762 11.0875 6.79771ZM13.0563 4.82896C13.0563 4.82896 13.1015 4.87416 13.1919 4.96457C13.2823 5.05497 13.3275 5.2274 13.3275 5.48186C13.3275 5.73633 13.2371 5.95396 13.0563 6.13477C12.8755 6.31557 12.6579 6.40597 12.4034 6.40597C12.1489 6.40597 11.9313 6.31557 11.7505 6.13477C11.5697 5.95396 11.4793 5.73633 11.4793 5.48186C11.4793 5.2274 11.5697 5.00977 11.7505 4.82896C11.9313 4.64816 12.1489 4.55776 12.4034 4.55776C12.6579 4.55776 12.8755 4.64816 13.0563 4.82896ZM9.0535 3.26702C9.0535 3.26702 8.93715 3.26786 8.70445 3.26953C8.47175 3.27121 8.33196 3.27204 8.28509 3.27204C8.23821 3.27204 7.98207 3.27037 7.51667 3.26702C7.05127 3.26367 6.69803 3.26367 6.45696 3.26702C6.21589 3.27037 5.89279 3.28041 5.48765 3.29715C5.08252 3.3139 4.73765 3.34738 4.45306 3.3976C4.16846 3.44782 3.92906 3.50977 3.73486 3.58343C3.40004 3.71735 3.1054 3.91155 2.85093 4.16602C2.59647 4.42048 2.40227 4.71512 2.26835 5.04994C2.19468 5.24414 2.13274 5.48354 2.08252 5.76814C2.0323 6.05273 1.99881 6.3976 1.98207 6.80273C1.96533 7.20787 1.95529 7.53097 1.95194 7.77204C1.94859 8.01311 1.94859 8.36635 1.95194 8.83175C1.95529 9.29715 1.95696 9.55329 1.95696 9.60017C1.95696 9.64704 1.95529 9.90318 1.95194 10.3686C1.94859 10.834 1.94859 11.1872 1.95194 11.4283C1.95529 11.6694 1.96533 11.9925 1.98207 12.3976C1.99881 12.8027 2.0323 13.1476 2.08252 13.4322C2.13274 13.7168 2.19468 13.9562 2.26835 14.1504C2.40227 14.4852 2.59647 14.7799 2.85093 15.0343C3.1054 15.2888 3.40004 15.483 3.73486 15.6169C3.92906 15.6906 4.16846 15.7525 4.45306 15.8027C4.73765 15.853 5.08252 15.8864 5.48765 15.9032C5.89279 15.9199 6.21589 15.93 6.45696 15.9333C6.69803 15.9367 7.05127 15.9367 7.51667 15.9333C7.98207 15.93 8.23821 15.9283 8.28509 15.9283C8.33196 15.9283 8.5881 15.93 9.0535 15.9333C9.5189 15.9367 9.87214 15.9367 10.1132 15.9333C10.3543 15.93 10.6774 15.9199 11.0825 15.9032C11.4877 15.8864 11.8325 15.853 12.1171 15.8027C12.4017 15.7525 12.6411 15.6906 12.8353 15.6169C13.1701 15.483 13.4648 15.2888 13.7192 15.0343C13.9737 14.7799 14.1679 14.4852 14.3018 14.1504C14.3755 13.9562 14.4374 13.7168 14.4877 13.4322C14.5379 13.1476 14.5714 12.8027 14.5881 12.3976C14.6048 11.9925 14.6149 11.6694 14.6182 11.4283C14.6216 11.1872 14.6216 10.834 14.6182 10.3686C14.6149 9.90318 14.6132 9.64704 14.6132 9.60017C14.6132 9.55329 14.6149 9.29715 14.6182 8.83175C14.6216 8.36635 14.6216 8.01311 14.6182 7.77204C14.6149 7.53097 14.6048 7.20787 14.5881 6.80273C14.5714 6.3976 14.5379 6.05273 14.4877 5.76814C14.4374 5.48354 14.3755 5.24414 14.3018 5.04994C14.1679 4.71512 13.9737 4.42048 13.7192 4.16602C13.4648 3.91155 13.1701 3.71735 12.8353 3.58343C12.6411 3.50977 12.4017 3.44782 12.1171 3.3976C11.8325 3.34738 11.4877 3.3139 11.0825 3.29715C10.6774 3.28041 10.3543 3.27037 10.1132 3.26702C9.87214 3.26367 9.5189 3.26367 9.0535 3.26702ZM15.9491 6.41602C15.9826 7.0053 15.9994 8.06669 15.9994 9.60017C15.9994 11.1336 15.9826 12.195 15.9491 12.7843C15.8822 14.1772 15.467 15.2553 14.7036 16.0187C13.9402 16.7821 12.8621 17.1973 11.4692 17.2642C10.88 17.2977 9.81857 17.3145 8.28509 17.3145C6.7516 17.3145 5.69022 17.2977 5.10093 17.2642C3.70808 17.1973 2.62995 16.7821 1.86656 16.0187C1.10317 15.2553 0.687988 14.1772 0.621024 12.7843C0.587542 12.195 0.570801 11.1336 0.570801 9.60017C0.570801 8.06669 0.587542 7.0053 0.621024 6.41602C0.687988 5.02316 1.10317 3.94503 1.86656 3.18164C2.62995 2.41825 3.70808 2.00307 5.10093 1.9361C5.69022 1.90262 6.7516 1.88588 8.28509 1.88588C9.81857 1.88588 10.88 1.90262 11.4692 1.9361C12.8621 2.00307 13.9402 2.41825 14.7036 3.18164C15.467 3.94503 15.8822 5.02316 15.9491 6.41602Z" fill="white"/>
</g>
<defs>
<clipPath id="clip0_209_282">
<rect width="15.43" height="18" fill="white" transform="matrix(1 0 0 -1 0.570068 18.6001)"/>
</clipPath>
</defs>
</svg>
