<svg width="16" height="19" viewBox="0 0 16 19" fill="none" xmlns="http://www.w3.org/2000/svg">
<g id="Item &#226;&#143;&#181; Link" clip-path="url(#clip0_209_278)">
<path id="Vector" d="M4.01632 6.87779V16.832H0.70159V6.87779H4.01632ZM4.22726 3.80413C4.23396 4.29297 4.06487 4.70145 3.72001 5.02958C3.37514 5.3577 2.92146 5.52176 2.35896 5.52176H2.33887C1.78976 5.52176 1.3478 5.3577 1.01297 5.02958C0.678153 4.70145 0.510742 4.29297 0.510742 3.80413C0.510742 3.30859 0.683175 2.89844 1.02804 2.57366C1.37291 2.24888 1.82324 2.0865 2.37905 2.0865C2.93485 2.0865 3.38016 2.24888 3.71498 2.57366C4.0498 2.89844 4.22056 3.30859 4.22726 3.80413ZM15.9393 11.1267V16.832H12.6346V11.5084C12.6346 10.8052 12.499 10.2545 12.2278 9.85603C11.9566 9.45759 11.5331 9.25837 10.9572 9.25837C10.5353 9.25837 10.1821 9.37388 9.89746 9.60491C9.61286 9.83594 9.40025 10.1222 9.25963 10.4637C9.18597 10.6646 9.14913 10.9358 9.14913 11.2773V16.832H5.84445C5.85784 14.1602 5.86454 11.9939 5.86454 10.3331C5.86454 8.67243 5.86119 7.68136 5.85449 7.35993L5.84445 6.87779H9.14913V8.32422H9.12905C9.26297 8.10993 9.40025 7.92243 9.54088 7.76172C9.6815 7.601 9.87068 7.4269 10.1084 7.2394C10.3461 7.0519 10.6374 6.90625 10.9823 6.80246C11.3271 6.69866 11.7105 6.64676 12.1324 6.64676C13.2775 6.64676 14.1982 7.02679 14.8947 7.78683C15.5911 8.54688 15.9393 9.66016 15.9393 11.1267Z" fill="white"/>
</g>
<defs>
<clipPath id="clip0_209_278">
<rect width="15.43" height="18" fill="white" transform="matrix(1 0 0 -1 0.51001 18.6001)"/>
</clipPath>
</defs>
</svg>
