<svg width="17" height="19" viewBox="0 0 17 19" fill="none" xmlns="http://www.w3.org/2000/svg">
<g id="Item &#226;&#143;&#181; Link" clip-path="url(#clip0_209_276)">
<path id="Vector" d="M16.0232 4.69845C15.5746 5.3547 15.0322 5.91385 14.396 6.37591C14.4027 6.46966 14.406 6.61028 14.406 6.79778C14.406 7.66832 14.2788 8.53718 14.0243 9.40437C13.7699 10.2716 13.3832 11.1036 12.8642 11.9005C12.3452 12.6973 11.7275 13.4021 11.011 14.0149C10.2944 14.6276 9.43059 15.1164 8.41943 15.4814C7.40827 15.8463 6.3268 16.0288 5.17501 16.0288C3.36028 16.0288 1.69957 15.5433 0.192871 14.5723C0.427246 14.5991 0.688407 14.6125 0.976353 14.6125C2.48305 14.6125 3.82568 14.1505 5.00425 13.2264C4.30113 13.213 3.67167 12.997 3.11586 12.5785C2.56006 12.1599 2.17836 11.6259 1.97077 10.9764C2.19175 11.0098 2.396 11.0266 2.5835 11.0266C2.87144 11.0266 3.15604 10.9897 3.43729 10.9161C2.68729 10.7621 2.0662 10.3887 1.57401 9.79611C1.08182 9.20347 0.835728 8.51542 0.835728 7.73193V7.69176C1.29109 7.94622 1.77992 8.0835 2.30225 8.10359C1.86028 7.80894 1.50872 7.4239 1.24756 6.94845C0.986398 6.47301 0.855817 5.95738 0.855817 5.40158C0.855817 4.81229 1.00314 4.26653 1.29778 3.7643C2.10805 4.76207 3.0941 5.56062 4.25593 6.15995C5.41776 6.75928 6.66162 7.09242 7.98751 7.15939C7.93394 6.90492 7.90716 6.65716 7.90716 6.41609C7.90716 5.51876 8.22356 4.7537 8.85638 4.12088C9.48919 3.48807 10.2543 3.17167 11.1516 3.17167C12.0891 3.17167 12.8793 3.51318 13.5221 4.19622C14.252 4.05559 14.9384 3.79443 15.5813 3.41274C15.3335 4.18283 14.858 4.77881 14.1549 5.20068C14.7777 5.13372 15.4005 4.96631 16.0232 4.69845Z" fill="white"/>
</g>
<defs>
<clipPath id="clip0_209_276">
<rect width="16.72" height="18" fill="white" transform="matrix(1 0 0 -1 0.189941 18.6001)"/>
</clipPath>
</defs>
</svg>
