<svg width="16" height="19" viewBox="0 0 16 19" fill="none" xmlns="http://www.w3.org/2000/svg">
<g id="Item &#226;&#143;&#181; Link" clip-path="url(#clip0_209_280)">
<path id="Vector" d="M10.0229 13.0956V15.2151C10.0229 15.6637 9.89233 15.888 9.63117 15.888C9.47716 15.888 9.32649 15.8144 9.17916 15.6671V12.6436C9.32649 12.4963 9.47716 12.4226 9.63117 12.4226C9.89233 12.4226 10.0229 12.647 10.0229 13.0956ZM13.418 13.1057V13.5677H12.514V13.1057C12.514 12.6503 12.6647 12.4226 12.966 12.4226C13.2673 12.4226 13.418 12.6503 13.418 13.1057ZM3.71488 10.9159H4.78966V9.97175H1.65573V10.9159H2.71041V16.6313H3.71488V10.9159ZM6.60774 16.6313H7.50171V11.6693H6.60774V15.4662C6.40684 15.7474 6.21599 15.888 6.03519 15.888C5.91466 15.888 5.84434 15.8177 5.82425 15.6771C5.81756 15.657 5.81421 15.5398 5.81421 15.3255V11.6693H4.92024V15.5967C4.92024 15.9249 4.94702 16.1693 5.00059 16.33C5.08095 16.5778 5.27515 16.7017 5.58318 16.7017C5.90461 16.7017 6.24613 16.4974 6.60774 16.0889V16.6313ZM10.9169 15.1447V13.1659C10.9169 12.6771 10.8868 12.3456 10.8265 12.1715C10.7126 11.7965 10.4749 11.609 10.1133 11.609C9.77849 11.609 9.46711 11.7898 9.17916 12.1514V9.97175H8.28519V16.6313H9.17916V16.1492C9.4805 16.5175 9.79189 16.7017 10.1133 16.7017C10.4749 16.7017 10.7126 16.5175 10.8265 16.1492C10.8868 15.9684 10.9169 15.6336 10.9169 15.1447ZM14.312 15.0443V14.9137H13.3979C13.3979 15.2552 13.3912 15.4595 13.3778 15.5264C13.3309 15.7675 13.197 15.888 12.976 15.888C12.668 15.888 12.514 15.657 12.514 15.195V14.3211H14.312V13.2865C14.312 12.7575 14.2216 12.3691 14.0408 12.1213C13.7796 11.7798 13.4247 11.609 12.976 11.609C12.5207 11.609 12.1624 11.7798 11.9013 12.1213C11.7138 12.3691 11.62 12.7575 11.62 13.2865V15.0242C11.62 15.5532 11.7171 15.9416 11.9113 16.1894C12.1725 16.5309 12.5341 16.7017 12.9961 16.7017C13.4783 16.7017 13.8399 16.5242 14.0809 16.1693C14.2015 15.9885 14.2718 15.8077 14.2919 15.6269C14.3053 15.5666 14.312 15.3724 14.312 15.0443ZM8.20483 5.87354V3.76416C8.20483 3.30211 8.06086 3.07108 7.77291 3.07108C7.48497 3.07108 7.34099 3.30211 7.34099 3.76416V5.87354C7.34099 6.34229 7.48497 6.57666 7.77291 6.57666C8.06086 6.57666 8.20483 6.34229 8.20483 5.87354ZM15.4269 13.4171C15.4269 14.984 15.3399 16.1559 15.1658 16.9327C15.072 17.3278 14.8778 17.6592 14.5832 17.9271C14.2885 18.195 13.947 18.349 13.5586 18.3892C12.3265 18.5298 10.4682 18.6001 7.98385 18.6001C5.49948 18.6001 3.64122 18.5298 2.40908 18.3892C2.02068 18.349 1.67749 18.195 1.3795 17.9271C1.08151 17.6592 0.888986 17.3278 0.801932 16.9327C0.627825 16.1827 0.540771 15.0108 0.540771 13.4171C0.540771 11.8501 0.627825 10.6782 0.801932 9.90144C0.895682 9.50635 1.08988 9.17487 1.38452 8.90702C1.67916 8.63916 2.02403 8.48179 2.41912 8.43492C3.64457 8.30099 5.49948 8.23403 7.98385 8.23403C10.4682 8.23403 12.3265 8.30099 13.5586 8.43492C13.947 8.48179 14.2902 8.63916 14.5882 8.90702C14.8862 9.17487 15.0787 9.50635 15.1658 9.90144C15.3399 10.6514 15.4269 11.8233 15.4269 13.4171ZM5.40238 0.600098H6.42693L5.21153 4.60791V7.33001H4.20707V4.60791C4.11332 4.11237 3.90908 3.40255 3.59434 2.47845C3.34658 1.78871 3.12894 1.1626 2.94144 0.600098H4.00617L4.71934 3.24184L5.40238 0.600098ZM9.1189 3.94496V5.70278C9.1189 6.24519 9.02515 6.64028 8.83765 6.88804C8.58318 7.22956 8.22827 7.40032 7.77291 7.40032C7.32425 7.40032 6.97269 7.22956 6.71823 6.88804C6.53073 6.63358 6.43698 6.23849 6.43698 5.70278V3.94496C6.43698 3.40925 6.53073 3.01751 6.71823 2.76974C6.97269 2.42822 7.32425 2.25746 7.77291 2.25746C8.22827 2.25746 8.58318 2.42822 8.83765 2.76974C9.02515 3.01751 9.1189 3.40925 9.1189 3.94496ZM12.4839 2.31773V7.33001H11.5698V6.77755C11.2149 7.19273 10.87 7.40032 10.5352 7.40032C10.2272 7.40032 10.0296 7.27644 9.94256 7.02867C9.88899 6.86796 9.8622 6.61684 9.8622 6.27532V2.31773H10.7763V6.00412C10.7763 6.2251 10.7796 6.34229 10.7863 6.35568C10.8064 6.503 10.8767 6.57666 10.9972 6.57666C11.178 6.57666 11.3689 6.43269 11.5698 6.14474V2.31773H12.4839Z" fill="white"/>
</g>
<defs>
<clipPath id="clip0_209_280">
<rect width="15.43" height="18" fill="white" transform="matrix(1 0 0 -1 0.540039 18.6001)"/>
</clipPath>
</defs>
</svg>
